Abduction_states
version=1
nRows=8
nColumns=41
inDegrees=yes

# SIMM Motion File Header:
name Abduction_states
datacolumns 41
datarows 8
otherdata 1
range 2.00262609 2.31912920
endheader
time	/jointset/ground_thorax/thorax_tilt/value	/jointset/ground_thorax/thorax_tilt/speed	/jointset/ground_thorax/thorax_list/value	/jointset/ground_thorax/thorax_list/speed	/jointset/ground_thorax/thorax_rotation/value	/jointset/ground_thorax/thorax_rotation/speed	/jointset/ground_thorax/thorax_tx/value	/jointset/ground_thorax/thorax_tx/speed	/jointset/ground_thorax/thorax_ty/value	/jointset/ground_thorax/thorax_ty/speed	/jointset/ground_thorax/thorax_tz/value	/jointset/ground_thorax/thorax_tz/speed	/jointset/sternoclavicular/sternoclavicular_r2/value	/jointset/sternoclavicular/sternoclavicular_r2/speed	/jointset/sternoclavicular/sternoclavicular_r3/value	/jointset/sternoclavicular/sternoclavicular_r3/speed	/jointset/unrotscap/unrotscap_r3/value	/jointset/unrotscap/unrotscap_r3/speed	/jointset/unrotscap/unrotscap_r2/value	/jointset/unrotscap/unrotscap_r2/speed	/jointset/acromioclavicular/acromioclavicular_r2/value	/jointset/acromioclavicular/acromioclavicular_r2/speed	/jointset/acromioclavicular/acromioclavicular_r3/value	/jointset/acromioclavicular/acromioclavicular_r3/speed	/jointset/acromioclavicular/acromioclavicular_r1/value	/jointset/acromioclavicular/acromioclavicular_r1/speed	/jointset/unrothum/unrothum_r1/value	/jointset/unrothum/unrothum_r1/speed	/jointset/unrothum/unrothum_r3/value	/jointset/unrothum/unrothum_r3/speed	/jointset/unrothum/unrothum_r2/value	/jointset/unrothum/unrothum_r2/speed	/jointset/shoulder0/elv_angle/value	/jointset/shoulder0/elv_angle/speed	/jointset/shoulder1/shoulder_elv/value	/jointset/shoulder1/shoulder_elv/speed	/jointset/shoulder1/shoulder1_r2/value	/jointset/shoulder1/shoulder1_r2/speed	/jointset/shoulder2/shoulder_rot/value	/jointset/shoulder2/shoulder_rot/speed
      2.00262609	     -0.00000000	     -0.00000000	      0.00000000	      0.00000000	      0.00000000	      0.00000000	      0.00000000	     -0.00000000	     -0.00000000	      0.00000000	      0.00000000	      0.00000000	    -21.76685672	      1.29959765	      9.21940590	     -0.55044779	     -9.21940590	      0.55044779	     21.76685672	     -1.29959765	     -4.40731178	      0.26314006	     35.61786814	     -2.12657704	     16.01034683	     -0.95590325	    -16.01034683	      0.95590325	    -35.61786814	      2.12657704	      4.40731178	     -0.26314006	     30.00000000	     -0.00000000	     89.94654076	     -5.37028908	    -30.00000000	     -0.00000000	      0.00000000	      0.00000000
      2.04440710	     -0.00000000	     -0.00000000	      0.00000000	      0.00000000	      0.00000000	      0.00000000	      0.00000000	     -0.00000000	     -0.00000000	      0.00000000	      0.00000000	      0.00000000	    -21.59973894	      6.62417391	      9.14862276	     -2.80568522	     -9.14862276	      2.80568522	     21.59973894	     -6.62417391	     -4.37347409	      1.34125015	     35.34440749	    -10.83936721	     15.88742538	     -4.87233059	    -15.88742538	      4.87233059	    -35.34440749	     10.83936721	      4.37347409	     -1.34125015	     30.00000000	     -0.00000000	     89.25596489	    -27.37287871	    -30.00000000	     -0.00000000	      0.00000000	      0.00000000
      2.08618812	     -0.00000000	     -0.00000000	      0.00000000	      0.00000000	      0.00000000	      0.00000000	      0.00000000	     -0.00000000	     -0.00000000	     -0.00000000	      0.00000000	      0.00000000	    -21.22332298	     11.23896206	      8.98919085	     -4.76029013	     -8.98919085	      4.76029013	     21.22332298	    -11.23896206	     -4.29725810	      2.27564368	     34.72846489	    -18.39070629	     15.61055719	     -8.26668191	    -15.61055719	      8.26668191	    -34.72846489	     18.39070629	      4.29725810	     -2.27564368	     30.00000000	     -0.00000000	     87.70051228	    -46.44243183	    -30.00000000	     -0.00000000	      0.00000000	      0.00000000
      2.12796913	     -0.00000000	     -0.00000000	      0.00000000	      0.00000000	      0.00000000	      0.00000000	      0.00000000	     -0.00000000	     -0.00000000	     -0.00000000	      0.00000000	      0.00000000	    -20.67571507	     14.77916837	      8.75725016	     -6.25975325	     -8.75725016	      6.25975325	     20.67571507	    -14.77916837	     -4.18637949	      2.99245793	     33.83239493	    -24.18366957	     15.20777085	    -10.87063762	    -15.20777085	     10.87063762	    -33.83239493	     24.18366957	      4.18637949	     -2.99245793	     30.00000000	     -0.00000000	     85.43764825	    -61.07152206	    -30.00000000	     -0.00000000	      0.00000000	      0.00000000
      2.16975014	     -0.00000000	     -0.00000000	      0.00000000	      0.00000000	      0.00000000	      0.00000000	     -0.00000000	     -0.00000000	     -0.00000000	     -0.00000000	      0.00000000	      0.00000000	    -20.00487433	     17.14296487	      8.47311391	     -7.26094509	     -8.47311391	      7.26094509	     20.00487433	    -17.14296487	     -4.05054894	      3.47107495	     32.73467480	    -28.05163235	     14.71434210	    -12.60929939	    -14.71434210	     12.60929939	    -32.73467480	     28.05163235	      4.05054894	     -3.47107495	     30.00000000	     -0.00000000	     82.66555284	    -70.83936867	    -30.00000000	     -0.00000000	      0.00000000	      0.00000000
      2.21153116	     -0.00000000	     -0.00000000	      0.00000000	      0.00000000	      0.00000000	      0.00000000	     -0.00000000	     -0.00000000	     -0.00000000	     -0.00000000	      0.00000000	      0.00000000	    -19.25779575	     18.46511379	      8.15668693	     -7.82094453	     -8.15668693	      7.82094453	     19.25779575	    -18.46511379	     -3.89928189	      3.73878115	     31.51220401	    -30.21511082	     14.16483753	    -13.58178995	    -14.16483753	     13.58178995	    -31.51220401	     30.21511082	      3.89928189	     -3.73878115	     30.00000000	     -0.00000000	     79.57842202	    -76.30284570	    -30.00000000	     -0.00000000	      0.00000000	      0.00000000
      2.26533018	     -0.00000000	     -0.00000000	      0.00000000	      0.00000000	      0.00000000	      0.00000000	     -0.00000000	     -0.00000000	     -0.00000000	     -0.00000000	      0.00000000	      0.00000000	    -18.24402122	     19.05560648	      7.72730023	     -8.07104917	     -7.72730023	      8.07104917	     18.24402122	    -19.05560648	     -3.69401475	      3.85834299	     29.85332933	    -31.18135465	     13.41916800	    -14.01611967	    -13.41916800	     14.01611967	    -29.85332933	     31.18135465	      3.69401475	     -3.85834299	     30.00000000	     -0.00000000	     75.38923140	    -78.74292126	    -30.00000000	     -0.00000000	      0.00000000	      0.00000000
      2.31912920	     -0.00000000	     -0.00000000	      0.00000000	      0.00000000	      0.00000000	      0.00000000	     -0.00000000	     -0.00000000	     -0.00000000	     -0.00000000	      0.00000000	      0.00000000	    -17.22067379	     18.90085043	      7.29385890	     -8.00550186	     -7.29385890	      8.00550186	     17.22067379	    -18.90085043	     -3.48680930	      3.82700828	     28.17879017	    -30.92812191	     12.66645724	    -13.90229074	    -12.66645724	     13.90229074	    -28.17879017	     30.92812191	      3.48680930	     -3.82700828	     30.00000000	     -0.00000000	     71.16048295	    -78.10342739	    -30.00000000	     -0.00000000	      0.00000000	      0.00000000
